<?xml version="1.0" standalone="no"?>
<!DOCTYPE svg PUBLIC "-//W3C//DTD SVG 20010904//EN"
 "http://www.w3.org/TR/2001/REC-SVG-20010904/DTD/svg10.dtd">
<svg version="1.0" xmlns="http://www.w3.org/2000/svg"
 width="864.000000pt" height="864.000000pt" viewBox="0 0 864.000000 864.000000"
 preserveAspectRatio="xMidYMid meet">
<metadata>
Created by potrace 1.11, written by Peter Selinger 2001-2013
</metadata>
<g transform="translate(0.000000,864.000000) scale(0.100000,-0.100000)"
fill="#000000" stroke="none">
<path d="M4088 8475 c-2 -1 -46 -6 -98 -10 -88 -6 -133 -11 -205 -20 -37 -4
-210 -33 -245 -40 -14 -3 -36 -7 -50 -10 -54 -10 -70 -14 -205 -49 -341 -87
-677 -221 -990 -396 l-120 -67 -880 -1 c-484 0 -887 -1 -896 -1 -15 -1 -16
-85 -16 -949 l0 -948 51 2 c28 0 54 -1 58 -3 3 -2 -15 -57 -42 -122 -70 -173
-165 -470 -195 -609 -2 -9 -11 -50 -19 -89 -17 -77 -21 -100 -40 -220 -3 -16
-10 -68 -16 -118 -6 -49 -13 -103 -16 -120 -21 -145 -21 -658 0 -825 3 -19 7
-62 11 -95 3 -33 8 -67 10 -75 2 -8 6 -35 9 -60 15 -111 42 -244 85 -410 117
-454 301 -867 569 -1275 36 -55 69 -102 72 -105 3 -3 38 -49 78 -103 210 -282
511 -583 803 -804 106 -80 287 -205 344 -237 17 -9 46 -26 65 -38 232 -139
625 -317 800 -363 14 -3 34 -10 45 -15 70 -32 457 -126 595 -145 25 -3 56 -8
70 -10 197 -30 348 -40 620 -40 213 0 365 7 460 20 19 3 53 7 75 9 80 8 335
55 420 78 22 5 47 11 55 13 101 20 360 101 498 156 678 269 1247 678 1708
1229 352 420 649 970 790 1465 65 226 93 349 128 570 36 219 49 389 49 645 0
157 -8 356 -17 410 -3 14 -7 54 -11 90 -8 92 -51 336 -81 460 -52 219 -112
408 -195 613 -29 72 -43 118 -36 118 7 1 35 2 62 3 l50 1 1 948 c1 861 0 947
-15 948 -9 0 -416 2 -906 3 l-890 2 -80 47 c-191 114 -506 254 -755 337 -142
47 -448 125 -570 144 -19 4 -44 8 -56 10 -12 2 -45 8 -75 11 -30 4 -63 9 -74
10 -24 4 -110 14 -180 21 -53 6 -601 14 -607 9z m597 -319 c28 -4 102 -14 165
-22 182 -22 308 -48 503 -100 130 -36 415 -131 430 -144 4 -3 -648 -7 -1450
-7 -1411 0 -1457 1 -1418 18 68 31 456 153 520 165 17 3 58 11 93 19 34 8 77
17 95 20 17 3 43 7 57 10 32 6 71 12 140 20 30 4 63 9 73 11 9 1 56 6 105 9
48 4 88 8 90 10 6 6 548 -3 597 -9z m-1034 -778 c3 -132 0 -2340 -4 -2344 -2
-3 -404 -5 -891 -5 l-886 -1 0 -584 0 -584 224 0 223 0 23 68 c129 388 290
623 495 722 127 62 189 71 525 77 l295 5 -1 -1498 c-1 -1335 -5 -1680 -18
-1749 -2 -11 -7 -42 -10 -68 -15 -100 -36 -175 -73 -255 -34 -75 -57 -107
-125 -173 -107 -106 -265 -169 -583 -234 l-80 -17 -165 83 c-207 104 -410 230
-597 370 -79 60 -150 115 -157 122 -7 6 -44 39 -82 72 -150 131 -367 361 -482
511 -117 152 -211 289 -268 389 -6 11 -35 60 -64 110 -71 122 -156 301 -223
470 -57 142 -139 397 -152 470 -4 22 -11 47 -15 55 -5 8 -10 29 -13 45 -3 17
-17 95 -31 175 -14 80 -28 172 -31 205 -4 33 -8 71 -10 85 -24 168 -24 555 1
790 7 73 15 136 19 159 2 13 7 45 11 70 14 100 78 374 121 511 46 150 132 376
187 490 l31 65 133 0 133 -1 19 61 c143 451 340 826 540 1025 156 156 366 266
565 295 22 4 51 8 64 10 12 2 60 7 105 11 44 3 82 8 84 9 2 2 264 4 583 4
l579 2 1 -23z m2659 8 c19 -3 53 -8 75 -11 22 -3 51 -8 65 -11 14 -3 39 -8 55
-11 52 -9 203 -71 275 -113 79 -46 198 -140 250 -196 137 -149 270 -367 380
-624 18 -41 38 -88 45 -105 23 -50 115 -303 115 -313 0 -16 19 -18 140 -17
l115 0 29 -60 c155 -328 283 -767 325 -1115 7 -52 14 -108 17 -125 7 -47 18
-280 18 -390 0 -105 -12 -367 -18 -401 -2 -10 -7 -46 -10 -79 -4 -33 -14 -100
-22 -150 -19 -117 -21 -125 -28 -155 -3 -14 -8 -36 -10 -50 -11 -66 -63 -251
-111 -395 -85 -257 -202 -515 -328 -728 -26 -43 -47 -80 -47 -82 0 -13 -233
-340 -286 -401 -11 -12 -32 -38 -48 -59 -77 -97 -277 -301 -401 -410 -37 -33
-73 -65 -79 -71 -37 -35 -279 -213 -376 -276 -179 -116 -459 -268 -537 -292
-25 -8 -275 45 -383 81 -172 57 -284 136 -364 256 -53 79 -106 237 -121 362
-4 28 -9 61 -12 75 -3 14 -7 742 -8 1619 l-3 1593 257 -5 c141 -3 270 -8 286
-11 324 -69 488 -236 665 -680 27 -66 51 -133 55 -149 l7 -27 224 0 224 0 0
584 0 585 -772 0 c-425 0 -812 0 -859 0 l-86 1 0 1186 0 1186 626 -5 c344 -3
642 -8 661 -11z m-1461 -6940 c-5 -4 -70 -12 -186 -23 -101 -10 -535 -10 -638
-1 -132 12 -200 20 -204 24 -2 2 229 4 514 4 285 0 516 -2 514 -4z"/>
</g>
</svg>
